<?xml version="1.0" encoding="iso-8859-1"?>
<!-- Generator: Adobe Illustrator 16.0.0, SVG Export Plug-In . SVG Version: 6.00 Build 0)  -->
<!DOCTYPE svg PUBLIC "-//W3C//DTD SVG 1.1//EN" "http://www.w3.org/Graphics/SVG/1.1/DTD/svg11.dtd">
<svg version="1.1" id="Capa_1" xmlns="http://www.w3.org/2000/svg" xmlns:xlink="http://www.w3.org/1999/xlink" x="0px" y="0px"
	 width="448.356px" height="448.356px" viewBox="0 0 448.356 448.356" style="enable-background:new 0 0 448.356 448.356;"
	 xml:space="preserve">
<g>
	<path d="M107.417,147.134c0-17.964,9.563-33.692,23.867-42.391v-9.39C131.284,42.778,174.058,0,226.633,0
		c52.579,0,95.344,42.778,95.344,95.353v12.827c11.527,9.071,18.953,23.14,18.953,38.949c0,23.207-15.976,42.629-37.51,48.024
		c-1.213,3.022-3.023,6.277-5.927,9.416c-6.66,7.232-16.783,11.675-30.103,13.343c-0.873,2.672-3.3,4.637-6.264,4.637h-12.666
		c-3.691,0-6.684-2.987-6.684-6.677s2.992-6.676,6.684-6.676h12.666c2.362,0,4.346,1.3,5.535,3.162
		c11.972-1.482,20.937-5.351,26.696-11.593c1.315-1.435,2.306-2.891,3.169-4.335c-1.704,0.177-3.431,0.273-5.171,0.273V97.565
		c5.297,0,10.412,0.842,15.2,2.385v-4.602c0-44.074-35.853-79.931-79.929-79.931c-44.073,0-79.931,35.857-79.931,79.931v3.292
		c3.316-0.697,6.758-1.071,10.275-1.071v99.128C129.606,196.698,107.417,174.509,107.417,147.134z M248.148,204.336h12.671
		c2.818,0,5.512,1.008,7.663,2.796c3.893-0.646,7.271-1.65,10.319-2.877c1.4-1.237,2.81-2.462,4.111-3.79V85.046h0.383
		c-14.99-15.413-35.928-25.021-59.125-25.021c-23.198,0-44.134,9.607-59.127,25.025h0.373v115.415
		c14.972,15.177,35.748,24.601,58.754,24.601c4.779,0,9.435-0.495,13.985-1.279c-1.447-2.021-2.324-4.478-2.324-7.15
		C235.832,209.851,241.362,204.336,248.148,204.336z M259.186,230.698h-70.022c-58.257,0-105.655,47.398-105.655,105.658v85.65
		l0.219,1.334l5.908,1.849c55.59,17.361,103.901,23.167,143.658,23.167c77.66,0,122.669-22.149,125.441-23.55l5.526-2.8h0.588
		v-85.65C364.849,278.097,317.449,230.698,259.186,230.698z"/>
</g>
<g>
</g>
<g>
</g>
<g>
</g>
<g>
</g>
<g>
</g>
<g>
</g>
<g>
</g>
<g>
</g>
<g>
</g>
<g>
</g>
<g>
</g>
<g>
</g>
<g>
</g>
<g>
</g>
<g>
</g>
</svg>
